#define max_width 21
#define max_height 21
static unsigned char max_bits[] = {
   0x00, 0x00, 0x00, 0x00, 0x00, 0x00, 0x00, 0x00, 0x00, 0x00, 0x00, 0x00,
   0x00, 0x00, 0x00, 0x00, 0x00, 0x00, 0x80, 0x31, 0x00, 0xc0, 0x7b, 0x00,
   0xe0, 0xff, 0x00, 0xe0, 0xff, 0x00, 0xe0, 0xff, 0x00, 0xe0, 0xff, 0x00,
   0xc0, 0x7f, 0x00, 0x80, 0x3f, 0x00, 0x00, 0x1f, 0x00, 0x00, 0x0e, 0x00,
   0x00, 0x04, 0x00, 0x00, 0x00, 0x00, 0x00, 0x00, 0x00, 0x00, 0x00, 0x00,
   0x00, 0x00, 0x00 };
